<svg xmlns="http://www.w3.org/2000/svg" width="60.5" height="11" viewBox="0 0 60.5 11">
  <defs>
    <style>
      .cls-1, .cls-2 {
        fill: #f0ece2;
      }

      .cls-1 {
        font-size: 10px;
        font-family: MicrosoftUighur, Microsoft Uighur;
      }
    </style>
  </defs>
  <g id="Group_21" data-name="Group 21" transform="translate(-173.5 -741)">
    <text id="Sir_Charlie_2020" data-name="Sir Charlie 2020" class="cls-1" transform="translate(188 749)"><tspan x="0" y="0">Sir Charlie 2020</tspan></text>
    <path id="Icon_material-copyright" data-name="Icon material-copyright" class="cls-2" d="M7.04,7.43A1.278,1.278,0,0,1,7.19,7a.875.875,0,0,1,.3-.31A.887.887,0,0,1,7.94,6.57a.906.906,0,0,1,.315.065.806.806,0,0,1,.26.18.963.963,0,0,1,.17.265.876.876,0,0,1,.07.32H9.65a1.79,1.79,0,0,0-.14-.645,1.5,1.5,0,0,0-.35-.505,1.633,1.633,0,0,0-.54-.33,1.931,1.931,0,0,0-.7-.115,1.954,1.954,0,0,0-.85.17,1.719,1.719,0,0,0-.6.46,1.88,1.88,0,0,0-.355.68,2.928,2.928,0,0,0-.12.82V8.07a2.927,2.927,0,0,0,.115.82,1.818,1.818,0,0,0,.355.675,1.707,1.707,0,0,0,.6.455,2.029,2.029,0,0,0,.85.17,1.907,1.907,0,0,0,.66-.115,1.705,1.705,0,0,0,.54-.315,1.526,1.526,0,0,0,.37-.47,1.346,1.346,0,0,0,.15-.575h-.9a.712.712,0,0,1-.075.29.736.736,0,0,1-.18.23.788.788,0,0,1-.26.15.993.993,0,0,1-.3.05.849.849,0,0,1-.445-.115.875.875,0,0,1-.3-.31,1.306,1.306,0,0,1-.15-.44A3.37,3.37,0,0,1,7,8.07V7.935a3.331,3.331,0,0,1,.04-.5ZM8,3a5,5,0,1,0,5,5A5,5,0,0,0,8,3Zm0,9a4,4,0,1,1,4-4A4.005,4.005,0,0,1,8,12Z" transform="translate(170.5 738)"/>
  </g>
</svg>
