<svg xmlns="http://www.w3.org/2000/svg" width="93.5" height="16" viewBox="0 0 93.5 16">
  <g id="copyright" transform="translate(-173.5 -741)">
    <text id="Sir_Charlie_2020" data-name="Sir  Charlie 2020" transform="translate(191 752)" fill="#f0ece2" font-size="16" font-family="MicrosoftUighur, Microsoft Uighur"><tspan x="0" y="0" xml:space="preserve">Sir  Charlie 2020</tspan></text>
    <path id="Icon_material-copyright" data-name="Icon material-copyright" d="M9.06,9.645a1.918,1.918,0,0,1,.225-.653,1.312,1.312,0,0,1,.443-.465,1.331,1.331,0,0,1,.682-.172,1.359,1.359,0,0,1,.472.1,1.209,1.209,0,0,1,.39.27,1.444,1.444,0,0,1,.255.4,1.313,1.313,0,0,1,.1.48h1.342a2.685,2.685,0,0,0-.21-.967,2.251,2.251,0,0,0-.525-.757,2.45,2.45,0,0,0-.81-.495,2.9,2.9,0,0,0-1.043-.173,2.931,2.931,0,0,0-1.275.255,2.579,2.579,0,0,0-.9.69,2.819,2.819,0,0,0-.533,1.02A4.392,4.392,0,0,0,7.5,10.4v.2a4.391,4.391,0,0,0,.173,1.23A2.727,2.727,0,0,0,8.2,12.848a2.56,2.56,0,0,0,.9.682,3.043,3.043,0,0,0,1.275.255,2.861,2.861,0,0,0,.99-.172,2.558,2.558,0,0,0,.81-.472,2.289,2.289,0,0,0,.555-.7,2.019,2.019,0,0,0,.225-.862H11.618a1.068,1.068,0,0,1-.113.435,1.1,1.1,0,0,1-.27.345,1.181,1.181,0,0,1-.39.225,1.489,1.489,0,0,1-.45.075,1.274,1.274,0,0,1-.667-.172,1.312,1.312,0,0,1-.443-.465,1.96,1.96,0,0,1-.225-.66,5.055,5.055,0,0,1-.06-.75v-.2a5,5,0,0,1,.06-.757ZM10.5,3A7.5,7.5,0,1,0,18,10.5,7.5,7.5,0,0,0,10.5,3Zm0,13.5a6,6,0,1,1,6-6A6.008,6.008,0,0,1,10.5,16.5Z" transform="translate(170.5 738)" fill="#f0ece2"/>
  </g>
</svg>
