<svg xmlns="http://www.w3.org/2000/svg" width="173.5" height="26" viewBox="0 0 173.5 26">
  <g id="copyright" transform="translate(-173.5 -740)">
    <text id="Made_with_Curiosity" data-name="Made with Curiosity" transform="translate(203 757)" fill="#f0ece2" font-size="25" font-family="MicrosoftUighur, Microsoft Uighur"><tspan x="0" y="0">Made with Curiosity</tspan></text>
    <path id="Icon_material-copyright" data-name="Icon material-copyright" d="M13.1,14.075a3.2,3.2,0,0,1,.375-1.087,2.187,2.187,0,0,1,.738-.775,2.218,2.218,0,0,1,1.137-.288,2.266,2.266,0,0,1,.788.162,2.015,2.015,0,0,1,.65.45,2.407,2.407,0,0,1,.425.662,2.189,2.189,0,0,1,.175.8h2.237a4.474,4.474,0,0,0-.35-1.612,3.751,3.751,0,0,0-.875-1.263,4.083,4.083,0,0,0-1.35-.825,4.829,4.829,0,0,0-1.738-.288,4.885,4.885,0,0,0-2.125.425,4.3,4.3,0,0,0-1.5,1.15,4.7,4.7,0,0,0-.888,1.7,7.321,7.321,0,0,0-.3,2.05v.338a7.318,7.318,0,0,0,.288,2.05,4.544,4.544,0,0,0,.887,1.688,4.267,4.267,0,0,0,1.5,1.137,5.072,5.072,0,0,0,2.125.425,4.768,4.768,0,0,0,1.65-.288A4.264,4.264,0,0,0,18.3,19.9a3.816,3.816,0,0,0,.925-1.175,3.364,3.364,0,0,0,.375-1.437H17.363a1.78,1.78,0,0,1-.187.725,1.839,1.839,0,0,1-.45.575,1.969,1.969,0,0,1-.65.375,2.482,2.482,0,0,1-.75.125,2.123,2.123,0,0,1-1.112-.288,2.187,2.187,0,0,1-.738-.775,3.266,3.266,0,0,1-.375-1.1,8.425,8.425,0,0,1-.1-1.25v-.337a8.328,8.328,0,0,1,.1-1.262ZM15.5,3A12.5,12.5,0,1,0,28,15.5,12.5,12.5,0,0,0,15.5,3Zm0,22.5a10,10,0,1,1,10-10A10.013,10.013,0,0,1,15.5,25.5Z" transform="translate(170.5 738)" fill="#f0ece2"/>
  </g>
</svg>
