<svg xmlns="http://www.w3.org/2000/svg" width="30" height="30" viewBox="0 0 30 30">
  <defs>
    <style>
      .cls-1 {
        fill: #f0ece2;
      }
    </style>
  </defs>
  <path id="Icon_zocial-email" data-name="Icon zocial-email" class="cls-1" d="M.072,31.411V6.725q0-.043.087-.814L9.966,18.339.188,32.268a5.216,5.216,0,0,1-.116-.857ZM1.374,4.2a.9.9,0,0,1,.492-.129H28.278A1.167,1.167,0,0,1,28.8,4.2L18.963,16.668l-1.3,1.543-2.575,3.129-2.575-3.129-1.3-1.543ZM1.4,33.939l9.865-14.014,3.819,4.586,3.819-4.586L28.77,33.939a1,1,0,0,1-.492.129H1.866a.946.946,0,0,1-.463-.129Zm18.8-15.6L29.985,5.911a3.7,3.7,0,0,1,.087.814V31.411a4.771,4.771,0,0,1-.087.857Z" transform="translate(-0.072 -4.068)"/>
</svg>
