<svg xmlns="http://www.w3.org/2000/svg" width="37.16" height="37.16" viewBox="0 0 37.16 37.16">
  <path id="github_dark" d="M18.58,0A18.814,18.814,0,0,0,0,19.05,19,19,0,0,0,12.7,37.124c.929.167,1.277-.4,1.277-.9,0-.452-.023-1.953-.023-3.548-4.668.881-5.876-1.167-6.248-2.238a6.925,6.925,0,0,0-1.9-2.691c-.65-.357-1.579-1.238-.023-1.262,1.463-.024,2.508,1.381,2.857,1.953A3.916,3.916,0,0,0,14.051,30a4.045,4.045,0,0,1,1.184-2.548C11.1,26.98,6.782,25.336,6.782,18.05a7.52,7.52,0,0,1,1.9-5.12,7.006,7.006,0,0,1,.186-5.048s1.556-.5,5.109,1.953a17.1,17.1,0,0,1,9.29,0c3.553-2.476,5.109-1.953,5.109-1.953a7.006,7.006,0,0,1,.186,5.048,7.476,7.476,0,0,1,1.9,5.12c0,7.31-4.343,8.93-8.477,9.406a4.573,4.573,0,0,1,1.254,3.524c0,2.548-.023,4.6-.023,5.239,0,.5.348,1.1,1.277.9A19.045,19.045,0,0,0,37.16,19.05,18.814,18.814,0,0,0,18.58,0Z" fill="#101010" fill-rule="evenodd"/>
</svg>
