<svg xmlns="http://www.w3.org/2000/svg" width="30" height="30" viewBox="0 0 30 30">
  <path id="github_light" d="M15,0A15.189,15.189,0,0,0,0,15.379,15.34,15.34,0,0,0,10.256,29.971c.75.135,1.031-.327,1.031-.731,0-.365-.019-1.576-.019-2.864-3.769.711-4.744-.942-5.044-1.807A5.59,5.59,0,0,0,4.688,22.4c-.525-.288-1.275-1-.019-1.019a3,3,0,0,1,2.306,1.576,3.161,3.161,0,0,0,4.369,1.269,3.266,3.266,0,0,1,.956-2.057c-3.337-.384-6.825-1.711-6.825-7.594a6.071,6.071,0,0,1,1.537-4.133,5.656,5.656,0,0,1,.15-4.076s1.256-.4,4.125,1.576a13.806,13.806,0,0,1,7.5,0c2.869-2,4.125-1.576,4.125-1.576a5.656,5.656,0,0,1,.15,4.076A6.035,6.035,0,0,1,24.6,14.572c0,5.9-3.506,7.209-6.844,7.594a3.692,3.692,0,0,1,1.013,2.845c0,2.057-.019,3.71-.019,4.229,0,.4.281.884,1.031.731A15.376,15.376,0,0,0,30,15.379,15.189,15.189,0,0,0,15,0Z" fill="#f0ece2" fill-rule="evenodd"/>
</svg>
