<svg xmlns="http://www.w3.org/2000/svg" width="37.164" height="37.164" viewBox="0 0 37.164 37.164">
  <defs>
    <style>
      .cls-1 {
        fill: #010101;
      }
    </style>
  </defs>
  <path id="Icon_awesome-twitter-square" data-name="Icon awesome-twitter-square" class="cls-1" d="M33.182,2.25H3.982A3.983,3.983,0,0,0,0,6.232v29.2a3.983,3.983,0,0,0,3.982,3.982h29.2a3.983,3.983,0,0,0,3.982-3.982V6.232A3.983,3.983,0,0,0,33.182,2.25ZM29.125,15.423c.017.232.017.473.017.705A15.374,15.374,0,0,1,13.663,31.608a15.408,15.408,0,0,1-8.354-2.439,11.462,11.462,0,0,0,1.311.066,10.908,10.908,0,0,0,6.752-2.323,5.448,5.448,0,0,1-5.085-3.774,5.864,5.864,0,0,0,2.455-.1A5.441,5.441,0,0,1,6.387,17.7V17.63a5.437,5.437,0,0,0,2.455.689,5.429,5.429,0,0,1-2.422-4.529,5.373,5.373,0,0,1,.738-2.746,15.448,15.448,0,0,0,11.215,5.691,5.452,5.452,0,0,1,9.283-4.969,10.661,10.661,0,0,0,3.451-1.311,5.426,5.426,0,0,1-2.389,2.995,10.827,10.827,0,0,0,3.136-.846A11.452,11.452,0,0,1,29.125,15.423Z" transform="translate(0 -2.25)"/>
</svg>
