<svg xmlns="http://www.w3.org/2000/svg" width="30" height="30" viewBox="0 0 30 30">
  <defs>
    <style>
      .cls-1 {
        fill: #f0ece2;
      }
    </style>
  </defs>
  <path id="Icon_awesome-youtube-square" data-name="Icon awesome-youtube-square" class="cls-1" d="M12.509,13.641l6.375,3.623-6.375,3.623ZM30,5.464V29.036a3.215,3.215,0,0,1-3.214,3.214H3.214A3.215,3.215,0,0,1,0,29.036V5.464A3.215,3.215,0,0,1,3.214,2.25H26.786A3.215,3.215,0,0,1,30,5.464ZM27.188,17.27a32.177,32.177,0,0,0-.509-5.906,3.057,3.057,0,0,0-2.156-2.17C22.627,8.679,15,8.679,15,8.679s-7.627,0-9.522.516a3.057,3.057,0,0,0-2.156,2.17,32.137,32.137,0,0,0-.509,5.906,32.177,32.177,0,0,0,.509,5.906,3.013,3.013,0,0,0,2.156,2.136c1.9.509,9.522.509,9.522.509s7.627,0,9.522-.516a3.013,3.013,0,0,0,2.156-2.136,32.078,32.078,0,0,0,.509-5.9Z" transform="translate(0 -2.25)"/>
</svg>
