<svg xmlns="http://www.w3.org/2000/svg" width="37.332" height="37.16" viewBox="0 0 37.332 37.16">
  <defs>
    <style>
      .cls-1 {
        fill: #010101;
      }
    </style>
  </defs>
  <path id="Icon_zocial-email" data-name="Icon zocial-email" class="cls-1" d="M.072,37.937V7.359q0-.053.108-1.009l12.2,15.395L.216,39a6.433,6.433,0,0,1-.144-1.062ZM1.692,4.227A1.123,1.123,0,0,1,2.3,4.068H35.172a1.458,1.458,0,0,1,.648.159L23.58,19.675l-1.62,1.911-3.2,3.875-3.2-3.875-1.62-1.911Zm.036,36.841L14,23.71l4.752,5.68,4.752-5.68L35.784,41.069a1.246,1.246,0,0,1-.612.159H2.3a1.181,1.181,0,0,1-.576-.159Zm23.4-19.323L37.3,6.351A4.564,4.564,0,0,1,37.4,7.359V37.937A5.883,5.883,0,0,1,37.3,39Z" transform="translate(-0.072 -4.068)"/>
</svg>
