<svg xmlns="http://www.w3.org/2000/svg" width="30" height="30" viewBox="0 0 30 30">
  <defs>
    <style>
      .cls-1 {
        fill: #f0ece2;
      }
    </style>
  </defs>
  <path id="Icon_awesome-weibo" data-name="Icon awesome-weibo" class="cls-1" d="M23.848,12.784c.445-1.736-.785-3.386-2.191-3.017-1.289.347-1.688-2.033-.416-2.373,2.936-.789,5.408,2.684,4.482,6.135-.4,1.534-2.273.781-1.875-.745ZM12.586,32.252C6.357,32.252,0,28.534,0,22.391c0-3.2,1.641-6.9,4.471-10.4,5.842-7.213,11.906-7.3,10.172-.412-.234.948.721.412.721.434,4.658-2.431,8.233-1.215,6.68,3.719-.217.68.064.789.486.948C30.481,19.743,24.569,32.252,12.586,32.252Zm8.42-10.584c-.316-4.03-4.6-6.8-9.574-6.2-4.969.622-8.719,4.363-8.4,8.392s4.6,6.8,9.574,6.2C17.572,29.438,21.323,25.7,21.006,21.668ZM20.385,2.474c-1.518.405-.984,3.162.486,2.771,4.236-1.1,7.9,3.82,6.545,8.971-.434,1.751,1.705,2.677,2.191.868,1.869-7.22-3.229-14.173-9.223-12.61Zm-4.6,22.5c-1,2.807-3.914,4.341-6.393,3.35-2.391-.948-3.4-3.863-2.361-6.49a5.118,5.118,0,0,1,6.059-3.263C15.551,19.353,16.787,22.2,15.785,24.974ZM10.729,22.8a1.721,1.721,0,0,0-2.227.933,1.837,1.837,0,0,0,.5,2.46,1.72,1.72,0,0,0,2.291-.933A1.829,1.829,0,0,0,10.729,22.8Zm1.91-.969a.681.681,0,0,0-.838.391.7.7,0,0,0,.217.933.661.661,0,0,0,.855-.391A.7.7,0,0,0,12.639,21.834Z" transform="translate(0 -2.252)"/>
</svg>
