<svg xmlns="http://www.w3.org/2000/svg" width="42.472" height="34.399" viewBox="0 0 42.472 34.399">
  <defs>
    <style>
      .cls-1 {
        fill: #010101;
      }
    </style>
  </defs>
  <path id="Icon_awesome-weibo" data-name="Icon awesome-weibo" class="cls-1" d="M33.762,14.328a2.688,2.688,0,0,0-3.1-3.459,1.392,1.392,0,0,1-.589-2.721,5.462,5.462,0,0,1,6.346,7.035,1.394,1.394,0,0,1-2.655-.854ZM17.819,36.651C9,36.651,0,32.387,0,25.344c0-3.675,2.323-7.914,6.329-11.921,8.271-8.271,16.856-8.37,14.4-.473-.332,1.087,1.02.473,1.02.5,6.595-2.787,11.655-1.394,9.457,4.264-.307.78.091.9.689,1.087C43.153,22.308,34.783,36.651,17.819,36.651ZM29.739,24.515c-.448-4.621-6.512-7.8-13.555-7.109-7.035.713-12.344,5-11.9,9.623s6.512,7.8,13.555,7.109C24.878,33.424,30.187,29.135,29.739,24.515ZM28.86,2.507a1.625,1.625,0,0,0,.689,3.177A7.986,7.986,0,0,1,38.814,15.97a1.629,1.629,0,0,0,3.1,1A11.243,11.243,0,0,0,28.86,2.507Zm-6.512,25.8a7.58,7.58,0,0,1-9.05,3.841,5.23,5.23,0,0,1-3.343-7.441,7.7,7.7,0,0,1,8.577-3.741C22.016,21.86,23.766,25.128,22.348,28.306Zm-7.159-2.489a2.68,2.68,0,0,0-3.152,1.07,1.874,1.874,0,0,0,.713,2.82,2.681,2.681,0,0,0,3.244-1.07A1.88,1.88,0,0,0,15.189,25.817Zm2.7-1.112a1.049,1.049,0,0,0-1.186.448.72.72,0,0,0,.307,1.07,1.018,1.018,0,0,0,1.211-.448A.725.725,0,0,0,17.893,24.705Z" transform="translate(0 -2.252)"/>
</svg>
