<svg xmlns="http://www.w3.org/2000/svg" width="380" height="380" viewBox="0 0 380 380">
  <defs>
    <style>
      .cls-1 {
        fill: #010101;
      }
    </style>
  </defs>
  <path id="Path_29" data-name="Path 29" class="cls-1" d="M371.021,380.5H274.141c-3.341,0-5.011-1.652-6.681-3.3L190.625,245.022,113.79,375.543c-1.67,3.3-3.341,3.3-6.681,3.3H10.229c-3.341,0-5.011-1.652-6.681-3.3s-1.67-4.956,0-8.261c0-1.652,1.67-3.3,1.67-3.3L105.438,190.5,3.548,15.37c0-1.652-1.67-1.652-1.67-3.3-1.67-3.3-1.67-6.609,0-8.261A12.832,12.832,0,0,1,10.229.5h96.879c3.341,0,5.011,1.652,6.681,3.3l76.835,132.174L267.46,5.457c1.67-3.3,3.341-3.3,6.681-3.3h98.549c3.341,0,5.011,1.652,6.681,3.3s1.67,4.957,0,8.261c0,1.652-1.67,3.3-1.67,3.3L275.812,190.5,377.7,365.63c0,1.652,1.67,1.652,1.67,3.3,1.67,3.3,1.67,6.609,0,8.261a12.832,12.832,0,0,1-8.352,3.3Z" transform="translate(-0.625 -0.5)"/>
</svg>
