<svg xmlns="http://www.w3.org/2000/svg" width="37.164" height="37.164" viewBox="0 0 37.164 37.164">
  <defs>
    <style>
      .cls-1 {
        fill: #010101;
      }
    </style>
  </defs>
  <path id="Icon_awesome-youtube-square" data-name="Icon awesome-youtube-square" class="cls-1" d="M15.5,16.361l7.9,4.488-7.9,4.488ZM37.164,6.232v29.2a3.983,3.983,0,0,1-3.982,3.982H3.982A3.983,3.983,0,0,1,0,35.432V6.232A3.983,3.983,0,0,1,3.982,2.25h29.2A3.983,3.983,0,0,1,37.164,6.232ZM33.679,20.857a39.86,39.86,0,0,0-.63-7.317,3.786,3.786,0,0,0-2.671-2.688c-2.348-.639-11.8-.639-11.8-.639s-9.449,0-11.8.639A3.786,3.786,0,0,0,4.115,13.54a39.812,39.812,0,0,0-.63,7.317,39.86,39.86,0,0,0,.63,7.317A3.732,3.732,0,0,0,6.786,30.82c2.348.63,11.8.63,11.8.63s9.449,0,11.8-.639a3.732,3.732,0,0,0,2.671-2.646,39.738,39.738,0,0,0,.63-7.308Z" transform="translate(0 -2.25)"/>
</svg>
